<?xml version="1.0" encoding="UTF-8" standalone="no"?>
<!DOCTYPE svg PUBLIC "-//W3C//DTD SVG 1.1//EN" "http://www.w3.org/Graphics/SVG/1.1/DTD/svg11.dtd">
<svg 
  height="99" 
  stroke-miterlimit="10" 
  style="fill-rule:nonzero;clip-rule:evenodd;stroke-linecap:round;stroke-linejoin:round;" 
  version="1.1" 
  viewBox="0 0 1920 1080" 
  preserveAspectRatio="xMidYMid meet"
  xml:space="preserve" 
  xmlns="http://www.w3.org/2000/svg" 
  xmlns:xlink="http://www.w3.org/1999/xlink">
<defs/>
<g id="Layer-1">
<path d="M704.824 598.962C666.857 598.962 637.155 579.559 637.155 535.966L637.035 438.957L671.458 423.015L673.086 531.054C673.086 557.403 687.099 567.224 704.825 567.224C722.671 567.224 736.803 557.283 736.803 531.054L737.043 438.957L772.914 422.426L772.734 535.966C772.734 579.562 742.911 598.962 704.826 598.962L704.824 598.962ZM849.861 564.827L904.116 564.827L904.116 596.566L813.93 596.566L815.192 438.957L848.708 423.574L849.861 564.826L849.861 564.827ZM1031.91 423.499L1032.35 454.815L990.831 455.118L990.831 596.562L955.26 596.562L955.26 455.118L913.94 455.118L912.948 438.957L946.036 422.844L1031.91 423.499L1031.91 423.499ZM1150.48 596.566L1105.45 520.393L1095.03 520.393L1095.03 596.566L1059.1 596.566L1060.43 438.957L1095.15 423.148L1121.85 423.499C1161.02 423.499 1177.55 446.614 1177.55 475.239C1177.55 498.474 1164.37 513.565 1140.9 518.595L1193 596.565L1150.48 596.565L1150.48 596.566ZM1095.03 453.325L1095.03 494.646L1116.23 494.646C1135.39 494.646 1143.17 486.502 1143.17 474.045C1143.17 461.709 1135.39 453.325 1116.23 453.325L1095.03 453.325ZM1335.16 596.566L1322.59 560.875L1249.89 560.875L1237.31 596.566L1200.55 596.566L1256.73 438.957L1288.27 423.555L1310.21 423.201L1331.87 484.029L1371.94 596.566L1335.17 596.566L1335.16 596.566ZM1260.43 530.811L1312.05 530.811L1286.3 457.391L1260.43 530.811ZM1489.31 596.566L1444.27 520.393L1433.85 520.393L1433.85 596.566L1397.92 596.566L1397.78 438.957L1432.29 423.506L1460.68 423.499C1499.84 423.499 1516.37 446.614 1516.37 475.239C1516.37 498.474 1503.2 513.565 1479.72 518.595L1531.82 596.565L1489.3 596.565L1489.31 596.566ZM1433.85 453.325L1433.85 494.646L1455.05 494.646C1474.21 494.646 1482 486.502 1482 474.045C1482 461.709 1474.21 453.325 1455.05 453.325L1433.85 453.325ZM1658.54 455.122L1594.34 455.122L1594.34 494.406L1651.23 494.406L1651.23 525.666L1594.34 525.666L1594.34 564.831L1658.54 564.831L1658.54 596.569L1558.18 596.569L1556.14 438.957L1591.21 423.502L1658.54 423.502L1658.54 455.121L1658.54 455.122ZM1695.55 596.566L1693.73 438.957L1729.53 423.499L1758.19 423.499C1813.4 423.499 1840.71 458.232 1840.71 509.974C1840.71 561.834 1813.4 596.566 1758.19 596.566L1695.55 596.566ZM1731.48 564.827L1756.39 564.827C1788.25 564.827 1802.86 544.946 1802.86 509.974C1802.86 475.001 1788.25 455.12 1756.39 455.12L1731.48 455.12L1731.48 564.83L1731.48 564.827Z" fill="#fcfefe" fill-rule="nonzero" opacity="1" stroke="none"/>
<path d="M216.888 324.862C205.575 324.862 195.319 330.729 185.219 340.829C177.528 348.519 169.673 359.014 161.467 372.144C151.022 388.857 140.142 409.668 128.957 433.758C118.735 455.774 108.827 479.33 99.5881 502.846C96.3569 511.071 93.4312 518.673 90.8747 525.537C89.9773 527.946 87.689 534.174 87.6458 534.294C85.7395 539.632 80.3859 556.989 80.3859 556.989C80.3859 556.989 97.5798 556.985 103.657 556.985L286.813 557.717L273.503 523.015L128.205 523.015C129.233 520.352 130.064 518.044 131.169 515.231C140.176 492.305 149.839 469.418 159.742 448.089C170.384 425.167 180.667 405.496 190.261 390.146C197.22 379.013 203.639 370.443 209.236 364.846C211.78 362.303 214.042 360.514 215.826 359.494C216.286 359.232 216.591 359.125 216.888 359.008C217.185 359.125 217.49 359.232 217.95 359.494C219.734 360.514 221.997 362.303 224.54 364.846C230.137 370.443 236.556 379.013 243.515 390.146C253.109 405.496 263.392 425.167 274.034 448.089C283.937 469.418 293.6 492.304 302.607 515.231C305.762 523.261 308.611 530.753 311.099 537.435C311.968 539.766 316.439 552.054 317.336 554.463C319.893 561.328 322.818 568.929 326.049 577.154C335.288 600.67 345.197 624.226 355.419 646.242C366.603 670.332 377.483 691.143 387.928 707.856C396.135 720.986 403.99 731.481 411.68 739.171C421.78 749.271 432.037 755.138 443.349 755.138C454.662 755.138 464.919 749.271 475.019 739.171C482.709 731.481 490.564 720.986 498.77 707.856C509.216 691.143 520.096 670.332 531.28 646.242C541.502 624.226 551.411 600.67 560.649 577.154C563.88 568.929 566.806 561.327 569.363 554.463C570.26 552.054 572.548 545.826 572.592 545.706C574.533 540.271 579.825 523.241 579.825 523.241C579.825 523.241 562.554 523.015 556.58 523.015L372.312 523.415L386.734 556.985L532.032 556.985C531.005 559.648 530.174 561.956 529.069 564.769C520.062 587.695 510.398 610.582 500.495 631.911C489.853 654.833 479.57 674.504 469.976 689.854C463.018 700.987 456.598 709.557 451.001 715.154C448.458 717.697 446.195 719.486 444.411 720.506C443.951 720.768 443.646 720.875 443.349 720.992C443.052 720.875 442.747 720.768 442.288 720.506C440.503 719.486 438.241 717.697 435.697 715.154C430.101 709.557 423.681 700.987 416.722 689.854C407.129 674.504 396.845 654.833 386.203 631.911C376.3 610.582 366.637 587.696 357.63 564.769C354.476 556.739 351.626 549.247 349.138 542.565C348.269 540.234 343.799 527.946 342.901 525.537C340.345 518.672 337.419 511.071 334.188 502.846C324.949 479.33 315.041 455.774 304.819 433.758C293.634 409.668 282.754 388.857 272.309 372.144C264.103 359.014 256.248 348.519 248.557 340.829C238.457 330.729 228.201 324.862 216.888 324.862Z" fill="#fcfefe" fill-rule="nonzero" opacity="1" stroke="none"/>
</g>
</svg>
